<svg xmlns="http://www.w3.org/2000/svg" aria-hidden="true" style="position:absolute;width:0;height:0;overflow:hidden">
  <defs>
    <symbol id="icon-hover" viewBox="0 0 32 32">
      <path stroke-linecap="round" stroke-linejoin="round" stroke-width="1.2" d="M27.8 6.1a7.4 7.4 0 0 0-10.4 0L16 7.6 14.6 6A7.3 7.3 0 1 0 4.2 16.5L16 28.3l11.8-11.8a7.4 7.4 0 0 0 0-10.4z"/>
    </symbol>
    <symbol id="icon-log-in" viewBox="0 0 32 32">
      <path stroke-linecap="round" stroke-linejoin="round" stroke-width="3.2" d="M20 4h1.6c2.2 0 3.4 0 4.2.4a4 4 0 0 1 1.8 1.8c.4.8.4 2 .4 4.2v11.2c0 2.2 0 3.4-.4 4.2a4 4 0 0 1-1.8 1.8c-.8.4-2 .4-4.2.4H20M13.3 9.3 20 16m0 0-6.7 6.7M20 16H4"/>
    </symbol>
    <symbol id="icon-heart" viewBox="0 0 36 32">
      <path stroke-linecap="round" stroke-linejoin="round" stroke-width="2.9" d="M31.9 4a8.7 8.7 0 0 0-12.3 0l-1.7 1.7L16.3 4A8.7 8.7 0 0 0 4 16.3l14 13.9 13.9-14a8.7 8.7 0 0 0 0-12.2z"/>
    </symbol>
    <symbol id="icon-ukraine" viewBox="0 0 32 32">
      <path d="M16 32a16 16 0 1 0 0-32 16 16 0 0 0 0 32z"/>
      <path d="M0 16a16 16 0 0 1 32 0z"/>
    </symbol>
    <symbol id="icon-Star" viewBox="0 0 34 32">
      <path stroke-width="2.7" d="M20.4 10.1c.3.7 1 1 1.6 1.2l7.8 1.3-5.5 5.7c-.5.5-.7 1.2-.6 1.9l1.1 7.7-7-3.4-.3-.1c-.5-.2-1-.2-1.5 0h-.2l-7 3.5 1-7.7c.1-.7-.1-1.4-.6-2l-5.5-5.6 7.8-1.3c.7-.1 1.3-.5 1.6-1.2l3.7-7 3.6 7z"/>
    </symbol>
    <symbol id="icon-book" viewBox="0 0 32 32">
      <path stroke-linecap="round" stroke-linejoin="round" stroke-width="3" d="M29.3 8.3c0-1.5 0-2.3-.3-2.8-.2-.5-.6-1-1.1-1.2C27.3 4 26.6 4 25 4h-.6c-3 0-4.4 0-5.6.6-1 .5-1.8 1.3-2.3 2.3-.6 1.2-.6 2.6-.6 5.6V28l.1-.2c1-1.4 1.4-2 2-2.6.6-.4 1.2-.8 1.9-1 .7-.2 1.6-.2 3.2-.2h1.9c1.5 0 2.2 0 2.8-.3.5-.2.9-.7 1.1-1.2.3-.5.3-1.3.3-2.8V8.3z"/>
      <path stroke-linecap="round" stroke-linejoin="round" stroke-width="3" d="M2.7 8.3c0-1.5 0-2.3.3-2.8.2-.5.6-1 1.1-1.2C4.7 4 5.4 4 7 4h.6c3 0 4.4 0 5.6.6 1 .5 1.8 1.3 2.3 2.3.6 1.2.6 2.6.6 5.6V28l-.1-.2c-1-1.4-1.4-2-2-2.6-.6-.4-1.2-.8-1.9-1-.7-.2-1.6-.2-3.2-.2H6.9c-1.5 0-2.2 0-2.8-.3-.5-.2-.9-.7-1.1-1.2-.3-.5-.3-1.3-.3-2.8V8.3z"/>
    </symbol>
  </defs>
</svg>
